# xmcd CD database file
#
# Track frame offsets:
#	150
#	27212
#	47675
#	81605
#	104072
#	130150
#	147182
#	163002
#	187117
#	219667
#
# Disc length: 3157 seconds
#
# Revision: 0
# Processed by: cddbd v1.5.2PL0 Copyright (c) Steve Scherf et al.
# Submitted via: CDex 1.70beta2
#
DISCID=960c530a
DTITLE=Stephan Diez - Lost in a Dream
DYEAR=1900
DGENRE=Jazz
TTITLE0=Sta. Margarita
TTITLE1=Above
TTITLE2=Lost in a Dream
TTITLE3=Good News
TTITLE4=Anything You Want
TTITLE5=For a better Living
TTITLE6=Um Canto Para Voce
TTITLE7=Quiet Waters
TTITLE8=So Many Places
TTITLE9=A Child is Born
EXTD=
EXTT0=
EXTT1=
EXTT2=
EXTT3=
EXTT4=
EXTT5=
EXTT6=
EXTT7=
EXTT8=
EXTT9=
PLAYORDER=
